<?xml version="1.0" standalone="no"?>
<!DOCTYPE svg PUBLIC "-//W3C//DTD SVG 20010904//EN"
 "http://www.w3.org/TR/2001/REC-SVG-20010904/DTD/svg10.dtd">
<svg version="1.0" xmlns="http://www.w3.org/2000/svg"
 width="2213.000000pt" height="2213.000000pt" viewBox="0 0 2213.000000 2213.000000"
 preserveAspectRatio="xMidYMid meet">
<metadata>
Created by potrace 1.14, written by Peter Selinger 2001-2017
</metadata>
<g transform="translate(0.000000,2213.000000) scale(0.100000,-0.100000)"
fill="#000000" stroke="none">
<path d="M3048 12730 c-149 -24 -293 -88 -418 -187 -143 -113 -253 -288 -307
-491 l-27 -97 -4 -517 -4 -518 226 0 226 0 0 483 c0 493 4 561 40 657 41 110
157 226 268 270 69 27 206 37 281 21 172 -37 320 -181 366 -356 12 -49 15
-143 15 -567 l0 -508 230 0 229 0 3 543 3 542 36 75 c45 93 96 152 173 202 92
59 178 82 290 75 107 -6 179 -30 259 -87 66 -48 137 -139 169 -218 23 -57 23
-59 26 -594 l3 -538 230 0 230 0 -4 528 c-3 498 -5 531 -25 603 -94 341 -321
575 -644 661 -99 26 -314 31 -413 9 -197 -43 -374 -154 -498 -311 -33 -41 -62
-76 -66 -77 -3 -2 -17 14 -31 35 -104 156 -300 292 -495 342 -92 24 -279 34
-367 20z"/>
<path d="M6763 12730 c-190 -24 -417 -110 -553 -209 -181 -132 -314 -317 -372
-518 -19 -66 -23 -101 -22 -223 0 -129 3 -154 27 -226 54 -163 174 -325 322
-437 522 -391 1340 -299 1705 193 60 81 131 229 156 325 24 94 25 285 1 375
-92 344 -406 612 -822 701 -105 22 -336 32 -442 19z m252 -370 c153 -17 268
-64 386 -157 313 -245 247 -686 -132 -876 -126 -64 -207 -80 -374 -74 -150 5
-245 30 -354 94 -74 43 -175 138 -214 200 -86 136 -90 336 -9 487 37 71 163
195 242 239 83 46 182 77 273 87 40 4 77 8 82 9 6 0 51 -4 100 -9z"/>
<path d="M9130 12729 c-151 -19 -327 -94 -465 -196 -128 -95 -221 -209 -293
-354 -98 -201 -102 -236 -102 -794 l0 -465 225 0 225 0 0 481 c0 529 1 543 62
663 41 81 154 194 235 235 221 111 477 70 648 -103 40 -40 85 -98 103 -132 59
-114 62 -139 62 -666 l0 -478 230 0 230 0 0 439 c0 261 -4 471 -11 517 -46
333 -266 628 -574 770 -176 81 -372 109 -575 83z"/>
<path d="M12585 12730 c-334 -53 -609 -297 -709 -630 -40 -135 -46 -224 -46
-717 l0 -463 224 0 225 0 3 528 3 527 27 68 c32 85 67 135 135 197 57 52 133
93 204 109 56 13 172 13 228 0 120 -27 251 -129 310 -238 58 -109 61 -144 61
-693 l0 -498 225 0 225 0 0 478 c0 491 5 572 40 664 40 107 154 221 267 267
79 32 214 40 302 17 172 -44 319 -198 351 -366 6 -31 10 -263 10 -556 l0 -504
231 0 230 0 -3 523 c-5 598 -5 599 -98 792 -89 185 -229 329 -405 414 -134 66
-226 85 -395 85 -170 -1 -256 -20 -387 -84 -130 -64 -293 -207 -343 -300 -15
-28 -24 -25 -53 19 -103 155 -299 291 -492 341 -93 24 -279 34 -370 20z"/>
<path d="M16301 12730 c-170 -22 -383 -98 -514 -184 -224 -147 -371 -356 -423
-599 -19 -90 -18 -240 2 -330 22 -99 92 -240 162 -329 73 -90 106 -121 203
-190 364 -259 883 -299 1294 -98 269 130 450 338 531 607 34 112 38 298 10
403 -96 351 -412 616 -841 705 -96 20 -321 27 -424 15z m254 -370 c105 -12
198 -40 275 -83 226 -124 335 -318 302 -534 -29 -186 -155 -340 -354 -433 -89
-42 -183 -60 -313 -60 -142 0 -228 19 -340 75 -211 105 -325 269 -325 468 0
154 49 266 165 376 135 128 266 182 485 200 8 0 56 -4 105 -9z"/>
<path d="M17800 12303 c0 -423 9 -578 41 -693 100 -358 398 -639 759 -715 354
-74 708 35 952 294 125 133 202 273 250 456 20 75 22 111 25 563 l5 482 -231
0 -230 0 -3 -502 -3 -503 -25 -65 c-123 -316 -464 -455 -769 -314 -90 41 -211
158 -253 244 -56 114 -58 132 -58 657 l0 483 -230 0 -230 0 0 -387z"/>
<path d="M9563 9999 c-101 -50 -223 -225 -403 -579 l-88 -176 -79 -56 c-211
-151 -384 -245 -595 -324 -89 -33 -193 -27 -247 14 l-23 19 23 44 c41 81 24
179 -33 179 -11 0 -18 7 -18 19 0 47 -64 60 -145 31 -33 -11 -111 -37 -173
-56 -145 -44 -443 -173 -638 -275 -83 -43 -154 -79 -158 -79 -3 0 -6 18 -6 41
0 33 -6 47 -31 70 -17 16 -47 33 -67 38 -21 5 -56 15 -79 20 -48 13 -89 43
-79 59 3 6 28 18 54 26 69 24 96 48 89 78 -21 82 -179 40 -484 -130 -86 -47
-109 -76 -79 -98 22 -16 67 -4 111 30 31 24 156 86 204 101 17 5 21 2 21 -19
0 -37 45 -84 88 -92 101 -19 182 -60 182 -92 0 -57 -135 -142 -227 -142 -63 0
-86 18 -103 79 -13 50 -41 62 -79 33 -52 -39 -23 -139 52 -179 49 -27 155 -22
242 11 39 15 169 76 290 135 400 198 598 291 621 291 3 0 -18 -26 -47 -57
-142 -156 -164 -279 -60 -332 50 -26 143 -28 203 -4 67 26 147 80 215 145 l62
60 35 -21 c74 -46 213 -46 356 0 113 37 313 145 458 247 34 24 62 41 62 38 0
-4 -11 -28 -25 -55 -17 -35 -37 -56 -71 -76 -65 -38 -204 -174 -276 -269 -124
-165 -208 -391 -178 -482 22 -67 62 -63 129 12 47 53 193 293 311 509 18 33
35 64 37 68 3 5 19 -5 37 -22 61 -59 137 -66 264 -26 86 27 237 94 280 124 26
18 218 132 235 140 5 1 -10 -33 -32 -78 -52 -102 -68 -170 -52 -222 16 -53 43
-69 116 -69 65 0 98 11 408 129 103 39 192 71 197 71 6 0 16 11 22 25 9 21 9
28 -3 39 -17 17 -49 9 -204 -49 -176 -66 -316 -105 -377 -105 -69 0 -69 -1
-32 126 37 128 94 230 155 279 28 22 67 54 88 70 32 26 53 33 132 44 163 22
361 61 445 86 45 14 85 25 88 25 3 0 -9 -21 -28 -48 -48 -66 -104 -186 -112
-239 -13 -86 23 -149 100 -176 l38 -13 -86 -73 c-158 -135 -223 -222 -233
-315 -9 -72 41 -136 126 -165 174 -58 476 88 645 313 63 84 128 213 149 297
l14 53 142 18 c166 20 206 31 228 65 15 23 15 26 -10 51 -26 26 -28 26 -84 14
-191 -42 -353 -74 -538 -107 -115 -20 -240 -46 -277 -58 -64 -20 -69 -20 -102
-4 -60 28 -60 89 -2 202 100 191 281 347 508 440 148 60 235 58 257 -8 22 -60
-8 -146 -76 -218 -78 -84 -203 -153 -338 -186 -55 -13 -68 -21 -76 -42 -14
-35 3 -69 38 -77 21 -6 46 3 118 41 212 112 352 229 413 342 41 78 45 161 9
214 -103 156 -426 72 -687 -178 -43 -40 -80 -73 -84 -73 -3 0 -6 7 -6 15 0 8
-9 19 -19 24 -14 8 -54 0 -167 -35 -164 -50 -361 -104 -382 -104 -8 0 15 33
50 73 35 39 82 94 104 122 21 27 66 82 100 121 72 83 103 152 86 189 -48 104
-248 -55 -459 -364 -62 -90 -114 -168 -116 -174 -1 -5 -61 -12 -132 -16 -126
-6 -130 -7 -133 -29 -7 -47 14 -55 116 -48 l93 6 -24 -37 c-30 -49 -182 -153
-344 -235 -67 -35 -150 -78 -185 -95 -182 -94 -299 -77 -315 45 -5 36 2 54 60
164 62 115 71 128 159 205 186 162 308 295 421 455 97 138 123 229 75 262 -31
22 -105 20 -155 -5z m61 -121 c-19 -65 -90 -168 -201 -295 -81 -93 -76 -88
-152 -158 l-55 -50 34 60 c123 218 227 358 319 430 52 41 65 44 55 13z m675
-210 c-24 -47 -118 -166 -193 -243 -106 -109 -72 -48 54 97 52 61 106 123 119
139 28 35 36 37 20 7z m-2279 -617 c-13 -25 -13 -92 0 -125 8 -23 4 -32 -44
-83 -60 -65 -117 -98 -199 -114 -63 -13 -140 -5 -157 16 -21 25 31 114 109
188 86 81 191 132 279 136 19 1 21 -2 12 -18z m3185 -73 c-42 -195 -249 -419
-451 -487 -82 -27 -181 -37 -228 -21 -90 29 -71 117 56 254 82 89 236 209 298
232 43 16 245 51 303 53 27 1 28 -1 22 -31z m-2376 -200 c-37 -71 -176 -283
-226 -346 -64 -81 -76 -77 -47 16 29 91 108 199 222 305 57 52 68 58 51 25z"/>
<path d="M14463 9994 c-29 -14 -71 -44 -95 -67 -96 -93 -372 -470 -495 -676
-66 -111 -71 -117 -150 -168 -98 -64 -232 -137 -290 -157 -23 -8 -97 -42 -165
-74 -129 -63 -233 -96 -283 -90 -57 6 -48 92 25 242 52 107 48 126 -27 126
-74 0 -128 -23 -502 -209 -173 -86 -318 -157 -323 -159 -4 -2 -8 13 -8 33 0
68 -33 97 -142 126 -125 32 -146 65 -60 94 69 23 96 47 89 77 -21 82 -179 40
-484 -130 -86 -47 -109 -76 -79 -98 22 -16 67 -4 111 30 31 24 156 86 204 101
17 5 21 2 21 -19 0 -37 45 -84 88 -92 58 -11 144 -43 164 -61 10 -9 18 -24 18
-34 0 -56 -136 -139 -227 -139 -63 0 -88 19 -99 75 -9 50 -44 66 -82 38 -15
-11 -28 -32 -30 -46 -5 -40 27 -96 71 -125 35 -23 50 -27 111 -26 95 2 140 20
529 213 262 130 513 240 549 241 3 0 -3 -30 -15 -67 -15 -48 -21 -95 -22 -160
0 -83 2 -94 24 -117 18 -19 35 -26 60 -26 68 0 117 19 426 166 44 20 94 43
110 49 17 6 78 39 137 73 60 34 110 62 112 62 3 0 -7 -28 -21 -62 -18 -43 -28
-88 -31 -143 -4 -77 -3 -82 24 -114 27 -32 29 -33 93 -29 53 3 121 25 340 107
151 56 292 115 315 130 23 15 91 59 151 96 61 37 167 110 238 161 70 51 127
91 127 88 0 -15 -155 -268 -227 -371 -45 -65 -83 -128 -83 -139 0 -12 9 -32
19 -45 18 -22 21 -23 46 -9 16 8 44 35 64 60 20 24 57 66 82 93 l46 50 47 -61
c50 -66 110 -119 166 -148 57 -29 181 -31 260 -4 93 31 430 199 437 217 8 19
-9 47 -30 51 -9 2 -47 -14 -84 -36 -78 -45 -219 -103 -313 -128 -95 -25 -184
-23 -240 5 -59 30 -132 90 -125 102 4 5 28 9 54 9 62 0 189 33 258 66 108 53
186 148 168 205 -19 58 -135 77 -243 39 -55 -19 -205 -105 -286 -162 -22 -16
-41 -26 -44 -24 -2 3 35 80 82 173 l87 168 218 212 c238 231 281 284 281 345
0 35 -4 40 -35 54 -43 18 -99 7 -156 -30 -71 -47 -198 -225 -314 -439 -42 -78
-57 -95 -141 -163 -122 -98 -291 -218 -403 -288 -229 -141 -515 -250 -718
-272 l-63 -7 0 40 c0 54 25 145 64 231 31 67 42 80 128 150 216 175 334 298
516 539 115 151 132 179 132 225 0 79 -62 100 -157 52z m10 -150 c-34 -76
-124 -196 -261 -351 -74 -83 -232 -230 -232 -214 0 17 137 217 220 320 110
137 273 301 286 288 3 -3 -3 -22 -13 -43z m965 -56 c-34 -50 -200 -230 -205
-224 -6 6 67 114 110 163 28 32 103 93 114 93 2 0 -6 -15 -19 -32z m-104 -719
c-54 -57 -212 -120 -298 -119 -20 0 -20 1 4 20 75 57 236 127 299 129 l25 1
-30 -31z"/>
<path d="M13390 9866 c-114 -30 -194 -83 -220 -146 -17 -41 7 -80 49 -80 29 0
45 15 95 86 10 14 44 38 75 52 49 22 70 26 166 26 61 1 122 -2 137 -7 48 -13
79 41 37 64 -34 18 -275 21 -339 5z"/>
</g>
</svg>
