<svg width="276" height="112" viewBox="0 0 276 112" fill="none" xmlns="http://www.w3.org/2000/svg">
<path fill-rule="evenodd" clip-rule="evenodd" d="M9.21436 109.392H0.853271V111.018H47.1512V81.7584H45.7785C45.7785 81.7584 45.7785 98.6389 40.1629 104.141C35.4207 108.892 30.4291 109.267 22.3176 109.267V55.3748C22.3176 55.3748 27.9332 54.9997 30.6786 57.7506C34.9216 62.002 35.4207 67.5038 35.4207 75.1313H36.9183V33.8678H35.4207C35.4207 41.4953 35.0464 46.9971 30.6786 51.2485C27.9332 53.9994 22.3176 53.6243 22.3176 53.6243V2.48259C30.4291 2.48259 34.2976 2.98275 39.0397 7.60926C44.5306 13.1111 44.6554 29.9916 44.6554 29.9916H46.0281V0.857056H0.853271V2.48259H9.21436V109.392Z" fill="black"/>
<path fill-rule="evenodd" clip-rule="evenodd" d="M99.6886 2.48259V109.392C107.8 109.392 112.792 108.892 117.534 104.266C123.025 98.764 123.15 81.8835 123.15 81.8835H124.522V111.143H78.2244V109.517H86.5854V2.35755H78.2244V0.857056H107.301V2.48259H99.6886Z" fill="black"/>
<path fill-rule="evenodd" clip-rule="evenodd" d="M174.065 2.48259V109.392C182.176 109.392 187.168 108.892 191.91 104.266C197.401 98.764 197.526 81.8835 197.526 81.8835H198.899V111.143H152.601V109.517H160.962V2.35755H152.601V0.857056H181.677V2.48259H174.065Z" fill="black"/>
<path fill-rule="evenodd" clip-rule="evenodd" d="M237.21 109.392H228.849V111.018H275.147V81.7584H273.774C273.774 81.7584 273.774 98.6389 268.158 104.141C263.416 108.892 258.424 109.267 250.313 109.267V55.3748C250.313 55.3748 255.929 54.9997 258.674 57.7506C262.917 62.002 263.416 67.5038 263.416 75.1313H264.914V33.8678H263.416C263.416 41.4953 263.042 46.9971 258.674 51.2485C255.929 53.9994 250.313 53.6243 250.313 53.6243V2.48259C258.424 2.48259 262.293 2.98275 267.035 7.60926C272.526 13.1111 272.651 29.9916 272.651 29.9916H274.023V0.857056H228.849V2.48259H237.21V109.392Z" fill="black"/>
</svg>
